<svg t="1679193052909" class="icon" viewBox="0 0 1024 1024" version="1.1" xmlns="http://www.w3.org/2000/svg" p-id="1987" width="200" height="200"><path d="M768 119.466667h-85.333333c0-34.133333-29.866667-64-64-64h-213.333334C371.2 55.466667 341.333333 85.333333 341.333333 119.466667H256c-59.733333 0-106.666667 46.933333-106.666667 106.666666v618.666667c0 59.733333 46.933333 106.666667 106.666667 106.666667h512c59.733333 0 106.666667-46.933333 106.666667-106.666667V226.133333c0-59.733333-46.933333-106.666667-106.666667-106.666666z m-384 0c0-12.8 8.533333-21.333333 21.333333-21.333334h213.333334c12.8 0 21.333333 8.533333 21.333333 21.333334v42.666666c0 12.8-8.533333 21.333333-21.333333 21.333334h-213.333334c-12.8 0-21.333333-8.533333-21.333333-21.333334v-42.666666z m448 725.333333c0 34.133333-29.866667 64-64 64H256c-34.133333 0-64-29.866667-64-64V226.133333c0-34.133333 29.866667-64 64-64h85.333333c0 34.133333 29.866667 64 64 64h213.333334c34.133333 0 64-29.866667 64-64h85.333333c34.133333 0 64 29.866667 64 64v618.666667z" fill="#ffffff" p-id="1988"></path><path d="M682.666667 366.933333H341.333333c-12.8 0-21.333333 8.533333-21.333333 21.333334s8.533333 21.333333 21.333333 21.333333h341.333334c12.8 0 21.333333-8.533333 21.333333-21.333333s-8.533333-21.333333-21.333333-21.333334zM597.333333 537.6H341.333333c-12.8 0-21.333333 8.533333-21.333333 21.333333s8.533333 21.333333 21.333333 21.333334h256c12.8 0 21.333333-8.533333 21.333334-21.333334s-8.533333-21.333333-21.333334-21.333333zM512 708.266667H341.333333c-12.8 0-21.333333 8.533333-21.333333 21.333333s8.533333 21.333333 21.333333 21.333333h170.666667c12.8 0 21.333333-8.533333 21.333333-21.333333s-8.533333-21.333333-21.333333-21.333333z" fill="#ffffff" p-id="1989"></path></svg>