<svg t="1679192575860" class="icon" viewBox="0 0 1024 1024" version="1.1" xmlns="http://www.w3.org/2000/svg" p-id="1485" width="200" height="200"><path d="M853.333333 214.186667c-92.586667 0-133.12-133.546667-133.546666-134.826667l-4.693334-15.36H316.586667l-4.266667 15.786667C280.746667 194.133333 171.946667 213.333333 167.253333 214.186667l-17.92 2.986666v439.04c0 18.346667 8.96 36.266667 23.466667 47.786667L512 965.546667l339.2-260.266667c14.506667-11.093333 23.466667-29.013333 23.466667-47.786667V214.186667H853.333333zM348.586667 106.666667h335.36c12.373333 32.853333 47.786667 109.226667 114.346666 138.24H212.906667c41.813333-16.213333 106.24-53.76 135.68-138.24zM192 656.213333v-45.226666h150.186667v-221.866667h-42.666667v179.2H192V287.573333h298.666667v607.573334L198.826667 669.866667a16.597333 16.597333 0 0 1-6.826667-13.653334z m633.173333 15.36l-291.84 224V287.573333h298.666667v280.746667h-107.52v-179.2h-42.666667v221.866667h150.186667v46.933333c0 5.12-2.56 10.24-6.826667 13.653333z" fill="#ffffff" p-id="1486"></path></svg>